<svg xmlns="http://www.w3.org/2000/svg" viewBox="0 0 32 32">
  <!-- Background -->
  <rect width="32" height="32" rx="6" fill="#0d0d0f"/>

  <!-- Column 1 -->
  <rect x="2" y="4" width="8" height="24" rx="2" fill="#1e1e24"/>
  <rect x="2" y="4" width="8" height="3" rx="1.5" fill="#7c6af7"/>
  <rect x="3" y="9"  width="6" height="2.5" rx="1" fill="#7c6af7" opacity="0.7"/>
  <rect x="3" y="13" width="6" height="2.5" rx="1" fill="#7c6af7" opacity="0.45"/>
  <rect x="3" y="17" width="6" height="2.5" rx="1" fill="#7c6af7" opacity="0.25"/>

  <!-- Column 2 -->
  <rect x="12" y="4" width="8" height="24" rx="2" fill="#1e1e24"/>
  <rect x="12" y="4" width="8" height="3" rx="1.5" fill="#f59e0b"/>
  <rect x="13" y="9"  width="6" height="2.5" rx="1" fill="#f59e0b" opacity="0.7"/>
  <rect x="13" y="13" width="6" height="2.5" rx="1" fill="#f59e0b" opacity="0.45"/>

  <!-- Column 3 -->
  <rect x="22" y="4" width="8" height="24" rx="2" fill="#1e1e24"/>
  <rect x="22" y="4" width="8" height="3" rx="1.5" fill="#10b981"/>
  <rect x="23" y="9"  width="6" height="2.5" rx="1" fill="#10b981" opacity="0.7"/>
</svg>
